<svg width="21" height="21" viewBox="0 0 21 21" fill="none" xmlns="http://www.w3.org/2000/svg">
<path fill-rule="evenodd" clip-rule="evenodd" d="M10.0975 19.5571L10.1587 19.5921L10.1832 19.6061C10.2804 19.6587 10.3891 19.6862 10.4996 19.6862C10.61 19.6862 10.7187 19.6587 10.8159 19.6061L10.8404 19.593L10.9025 19.5571C11.2447 19.3542 11.5787 19.1376 11.9035 18.9079C12.7444 18.3142 13.5302 17.6459 14.2511 16.9111C15.9521 15.1699 17.7188 12.5536 17.7188 9.1875C17.7188 7.27297 16.9582 5.43685 15.6044 4.08307C14.2506 2.72929 12.4145 1.96875 10.5 1.96875C8.58547 1.96875 6.74935 2.72929 5.39557 4.08307C4.04179 5.43685 3.28125 7.27297 3.28125 9.1875C3.28125 12.5528 5.04875 15.1699 6.74887 16.9111C7.46956 17.6458 8.25499 18.3141 9.09563 18.9079C9.42075 19.1376 9.75498 19.3542 10.0975 19.5571ZM10.5 11.8125C11.1962 11.8125 11.8639 11.5359 12.3562 11.0437C12.8484 10.5514 13.125 9.88369 13.125 9.1875C13.125 8.49131 12.8484 7.82363 12.3562 7.33134C11.8639 6.83906 11.1962 6.5625 10.5 6.5625C9.80381 6.5625 9.13613 6.83906 8.64384 7.33134C8.15156 7.82363 7.875 8.49131 7.875 9.1875C7.875 9.88369 8.15156 10.5514 8.64384 11.0437C9.13613 11.5359 9.80381 11.8125 10.5 11.8125Z" fill="#DE711D"/>
</svg>
