<svg width="305" height="76" viewBox="0 0 305 76" fill="none" xmlns="http://www.w3.org/2000/svg">
<path fill-rule="evenodd" clip-rule="evenodd" d="M202.881 0.779028C204.097 0.468497 205.442 0.183844 205.856 0.132088C206.271 0.0803324 207.849 0.00269946 209.35 0.00269946C210.851 -0.0231775 213.102 0.132088 214.396 0.33911C215.69 0.54613 217.657 1.01193 218.795 1.37421C219.934 1.7365 221.901 2.56459 223.194 3.21153C224.488 3.83259 226.429 4.99708 227.542 5.77341C228.629 6.54974 229.535 7.27431 229.535 7.37782C229.56 7.50721 227.671 9.73269 225.368 12.3722C223.065 15.0117 221.15 17.2113 221.098 17.289C221.047 17.3666 220.736 17.0819 220.426 16.642C220.115 16.2021 219.39 15.4258 218.795 14.9082C218.226 14.3648 217.113 13.5885 216.337 13.1744C215.561 12.7604 214.215 12.2169 213.361 11.9582C212.274 11.6218 211.006 11.4924 209.221 11.5182C207.202 11.5182 206.296 11.6735 205.08 12.1134C204.226 12.4498 203.062 13.0191 202.492 13.4073C201.923 13.7955 201.121 14.4942 200.707 14.9858C200.293 15.4775 199.749 16.3315 199.491 16.9008C199.232 17.4701 198.921 18.6863 198.844 19.6179C198.714 20.8083 198.792 21.714 199.077 22.7233C199.335 23.6548 199.879 24.5864 200.603 25.4145C201.224 26.1132 202.415 27.1483 203.269 27.6918C204.123 28.2352 207.332 29.762 210.385 31.0558C213.439 32.3497 216.88 33.8506 218.019 34.4458C219.158 35.0151 220.788 35.9467 221.642 36.516C222.496 37.0853 223.997 38.3792 225.006 39.3884C226.015 40.4235 227.257 42.0021 227.801 42.9078C228.344 43.8394 229.043 45.4697 229.405 46.5307C229.742 47.5916 230.156 49.5842 230.337 50.9299C230.595 52.8966 230.57 53.8799 230.311 55.8466C230.13 57.1922 229.716 59.1589 229.379 60.1682C229.043 61.2033 228.448 62.6783 228.085 63.4029C227.697 64.1533 227.05 65.2919 226.61 65.9389C226.17 66.5858 225.291 67.7244 224.644 68.5008C223.997 69.2771 222.806 70.3898 222.03 70.985C221.254 71.5543 220.037 72.3824 219.313 72.7965C218.614 73.1846 217.294 73.8057 216.415 74.1421C215.509 74.4526 213.775 74.9702 212.533 75.2807C211.213 75.5654 208.832 75.8759 206.892 75.9535C204.796 76.057 202.699 75.9794 201.328 75.7983C200.112 75.6171 198.197 75.2548 197.058 74.9443C195.919 74.6596 193.823 73.8574 192.4 73.1846C190.977 72.5377 188.881 71.2697 187.742 70.4157C186.604 69.5617 185.18 68.2937 183.472 66.3271L187.328 62.316C189.45 60.1164 191.494 58.0462 192.53 57.1405L193.616 58.3309C194.237 59.0037 195.428 60.0388 196.282 60.6598C197.136 61.255 198.637 62.109 199.646 62.523C200.655 62.9371 202.104 63.4029 202.881 63.5581C203.566 63.6953 204.555 63.8526 205.222 63.9588L205.223 63.9589L205.223 63.9589L205.468 63.9981C206.115 64.0757 207.513 64.0239 208.574 63.8428C209.635 63.6875 211.161 63.2735 211.938 62.9112C212.818 62.523 213.827 61.7726 214.603 60.9445C215.328 60.1682 216.078 59.0037 216.389 58.1756C216.751 57.2699 216.932 56.1054 216.958 54.9409C216.958 53.5694 216.829 52.8189 216.389 51.8873C216.078 51.2145 215.198 50.0241 214.474 49.2219C213.723 48.4197 212.222 47.1776 211.161 46.453C210.1 45.7285 207.823 44.4605 206.115 43.6582C204.407 42.8302 202.078 41.7951 200.94 41.3551C199.801 40.9152 198.119 40.1389 197.187 39.6213C196.256 39.1297 194.807 38.2239 193.953 37.6029C193.099 37.0077 191.65 35.7656 190.744 34.8599C189.838 33.9541 188.596 32.3238 187.975 31.2629C187.354 30.2019 186.629 28.4422 186.345 27.3812C186.06 26.3202 185.775 24.5088 185.672 23.3702C185.568 22.2057 185.62 20.3943 185.801 19.2298C185.957 18.0912 186.371 16.2797 186.733 15.2187C187.095 14.1578 187.872 12.4498 188.441 11.4665C189.114 10.3537 190.459 8.69758 191.986 7.1708C193.358 5.79929 195.169 4.24663 196.023 3.7032C196.877 3.15977 198.274 2.40932 199.128 2.02115C199.982 1.63299 201.664 1.06368 202.881 0.779028ZM111.015 2.97863C111.947 2.61634 113.499 2.15054 114.508 1.91765C116.035 1.58123 119.115 1.52948 153.066 1.63299L155.136 2.33169C156.275 2.74573 157.802 3.39267 158.5 3.80671C159.225 4.22075 160.415 5.10059 161.192 5.79929C161.942 6.49798 163.081 7.81774 163.676 8.74934C164.297 9.68093 165.099 11.1818 165.462 12.1134C165.85 13.045 166.315 14.6494 166.522 15.6587C166.833 17.2372 166.911 20.8859 166.911 37.2665C166.911 53.7246 166.859 57.3993 166.522 59.2625C166.315 60.5305 165.824 62.316 165.462 63.2735C165.099 64.2568 164.375 65.7319 163.857 66.5858C163.34 67.4398 162.149 68.8889 161.218 69.8205C160.286 70.7521 158.837 71.9425 157.983 72.46C157.129 72.9776 155.499 73.728 152.29 74.8667L134.175 74.9443C118.701 75.0219 115.776 74.9702 114.12 74.6338C113.059 74.4009 111.196 73.728 109.98 73.1329C108.272 72.3048 107.314 71.5802 105.684 69.9758C104.442 68.7078 103.174 67.1551 102.553 66.0683C101.984 65.059 101.337 63.7393 101.104 63.0923C100.871 62.4454 100.509 61.1774 100.276 60.2458C99.9653 58.8225 99.8876 55.4326 99.8876 37.8617C99.8876 20.0837 99.9394 16.9525 100.276 15.6069C100.509 14.7529 101.104 13.1744 101.596 12.1134C102.113 11.0524 103.019 9.47391 103.614 8.61995C104.235 7.76599 105.193 6.67913 105.736 6.18745C106.279 5.69578 107.34 4.91945 108.039 4.47953C108.764 4.01373 110.083 3.34091 111.015 2.97863ZM0 38.1204V74.4785L11.7743 74.3491C11.8778 42.5455 11.9813 38.7674 12.2401 38.7674C12.3954 38.7415 19.1236 46.7894 27.1715 56.6229L41.7924 74.4785C54.5242 74.4785 58.2246 74.4009 58.2246 74.2715C58.2246 74.168 50.7719 65.3955 41.663 54.7339C32.554 44.0982 25.1013 35.3515 25.1013 35.2739C25.1013 35.1963 32.0624 27.7176 40.602 18.6346C49.1157 9.57742 56.0509 2.07291 55.9992 1.94352C55.9474 1.84001 52.3763 1.76238 48.0806 1.76238L40.2397 1.78826C18.7872 25.6215 12.3954 32.5309 12.2142 32.5309C11.9813 32.5567 11.9037 29.322 11.9037 17.1596V1.76238H0V38.1204ZM69.352 74.4785V38.1204V1.76238H81.5145V74.4785H69.352ZM246.096 38.1204V74.4785H258C258 40.9152 258.052 38.7674 258.388 38.7674C258.595 38.7674 265.194 46.6601 273.035 56.2865C280.902 65.9389 287.5 73.9868 287.733 74.168C288.044 74.4009 290.088 74.4785 296.247 74.4785C300.672 74.4785 304.321 74.4009 304.321 74.2715C304.347 74.168 296.894 65.3955 287.759 54.7339C278.65 44.0982 271.197 35.3774 271.197 35.3257C271.197 35.2998 278.159 27.8211 286.698 18.7122C295.212 9.6033 302.147 2.07291 302.095 1.94352C302.044 1.84001 298.472 1.76238 294.177 1.78826H286.336C264.883 25.6215 258.492 32.5309 258.336 32.5309C258.078 32.5567 258 29.322 258 17.1596V1.76238H246.096V38.1204ZM121.573 24.7159C120.771 25.2853 120.512 25.337 116.372 25.3111H112.05C112.05 55.2774 112.102 57.5288 112.464 58.3827C112.671 58.9003 113.163 59.6766 113.551 60.0648C113.939 60.4788 114.69 61.0223 115.207 61.3069C116.139 61.7727 116.915 61.7986 133.606 61.7468L151.022 61.6692C152.704 60.5565 153.506 59.7025 153.894 59.0297L154.619 57.7876L154.748 25.3111C146.312 25.337 146.027 25.2853 145.122 24.7159L144.19 24.1208C143.831 24.3724 143.547 24.572 143.241 24.7303C142.068 25.337 140.582 25.337 133.399 25.337C124.368 25.337 124.342 25.337 123.385 24.7159L122.427 24.1208L121.573 24.7159Z" fill="#1F7B95"/>
<path d="M111.532 4.84182C112.593 4.4019 114.172 3.88435 115.026 3.67732C116.242 3.41855 120.434 3.36679 134.563 3.41855C150.556 3.4703 152.704 3.52206 153.972 3.91022C154.748 4.14312 156.093 4.68655 156.947 5.12647C157.801 5.54051 159.018 6.34272 159.665 6.88615C160.312 7.42958 161.373 8.69758 162.019 9.68093C162.692 10.6643 163.52 12.2169 163.883 13.1485C164.245 14.0801 164.659 15.5034 164.97 17.8065H133.476C103.64 17.8065 101.958 17.7806 101.958 17.3666C101.958 17.1078 102.113 16.3315 102.294 15.6069C102.501 14.9082 102.967 13.6143 103.355 12.7604C103.743 11.9064 104.545 10.5349 105.14 9.68093C105.736 8.85285 106.978 7.61072 107.909 6.91203C108.841 6.21333 110.471 5.28174 111.532 4.84182Z" fill="#F69347"/>
<path d="M102.501 23.0597C102.035 22.6974 101.88 22.2833 101.75 21.1188L101.621 19.6179H121.624L121.521 21.093C121.443 22.3092 121.314 22.6974 120.822 23.0597C120.253 23.4737 119.477 23.5255 111.662 23.5255C103.847 23.5255 103.07 23.4737 102.501 23.0597Z" fill="#F69347"/>
<path d="M124.238 23.0597C123.772 22.6974 123.591 22.2833 123.488 21.1188L123.358 19.6179H143.362V20.653C143.362 21.2482 143.206 22.0246 142.999 22.4127C142.818 22.8009 142.456 23.2149 142.223 23.3184C141.99 23.422 137.979 23.5255 133.321 23.5255C125.584 23.5255 124.807 23.4996 124.238 23.0597Z" fill="#F69347"/>
<path d="M145.82 22.8785C145.303 22.361 145.173 21.9728 145.173 20.9377V19.6438L164.97 19.7732V20.9895C164.97 21.921 164.814 22.3351 163.676 23.5513L146.467 23.5255L145.82 22.8785Z" fill="#F69347"/>
</svg>
