<svg width="507" height="554" viewBox="0 0 507 554" fill="none" xmlns="http://www.w3.org/2000/svg">
<g style="mix-blend-mode:multiply">
<path d="M499.761 412.471L488.872 418.771L231.239 270.323L227.75 272.294L242.127 264.024L234.974 259.906L23.8213 381.712L30.9748 385.865L131.124 328.076L388.687 476.559L288.608 534.312L295.761 538.43L506.914 416.589L499.761 412.471Z" fill="#386D7D" fill-opacity="0.3"/>
</g>
<path d="M5.92017 380.375C-1.97339 384.95 -1.97339 392.305 5.92017 396.88C13.8137 401.456 26.6408 401.456 34.5343 396.88C42.4279 392.305 42.4279 384.95 34.5343 380.375C26.6408 375.799 13.8137 375.799 5.92017 380.375Z" fill="#4A5365"/>
<path d="M5.92017 376.257C-1.97339 380.832 -1.97339 388.188 5.92017 392.763C13.8137 397.338 26.6408 397.338 34.5343 392.763C42.4279 388.188 42.4279 380.832 34.5343 376.257C26.6408 371.682 13.8137 371.682 5.92017 376.257Z" fill="#718090"/>
<g style="mix-blend-mode:multiply">
<path d="M27.4164 383.788L37.2129 378.157C36.4729 377.489 35.5919 376.855 34.57 376.257C33.0899 375.412 31.4337 374.779 29.707 374.251L13.1094 383.788H27.4164Z" fill="#BFD2D8"/>
</g>
<path d="M13.0732 4.11768V383.788L20.2268 387.941V8.27054L13.0732 4.11768Z" fill="#4A5365"/>
<path d="M20.2275 8.27054L27.4163 4.11768V383.788L20.2275 387.941V8.27054Z" fill="#333A4C"/>
<path d="M13.0732 4.11767L20.2268 0L27.4156 4.11767L20.2268 8.27054L13.0732 4.11767Z" fill="#616D7E"/>
<path d="M277.896 363.165L277.86 181.565L292.167 173.329L292.203 354.894L277.896 363.165Z" fill="#8DB3CD"/>
<path d="M285.049 177.482L27.4163 28.894L20.2275 33.0117L277.861 181.565L285.049 177.482Z" fill="#D8E9EF"/>
<path d="M20.2275 33.0117V214.612L277.896 363.165L277.861 181.565L20.2275 33.0117Z" fill="#B3CEDE"/>
<path d="M270.742 350.777V185.718L27.3809 45.4L27.3985 127.929L27.4161 210.459L270.742 350.777Z" fill="url(#paint0_linear_240_6)"/>
<path d="M27.3809 45.4L27.4161 210.459L34.5696 206.341V49.5177L27.3809 45.4Z" fill="#89B4D3"/>
<path d="M27.416 210.459L34.5696 206.341L270.742 342.541V350.776L27.416 210.459Z" fill="#8DB3CD"/>
<path d="M270.706 533.08C262.813 537.655 262.813 545.011 270.706 549.586C278.6 554.161 291.427 554.161 299.32 549.586C307.214 545.011 307.214 537.62 299.32 533.08C291.427 528.505 278.6 528.505 270.706 533.08Z" fill="#4A5365"/>
<path d="M270.706 528.963C262.813 533.538 262.813 540.928 270.706 545.468C278.6 550.044 291.427 550.044 299.32 545.468C307.214 540.893 307.214 533.538 299.32 528.963C291.427 524.387 278.6 524.387 270.706 528.963Z" fill="#718090"/>
<g style="mix-blend-mode:multiply">
<path d="M292.203 536.494L301.999 530.863C301.259 530.194 300.378 529.561 299.356 528.963C297.876 528.118 296.22 527.484 294.493 526.957L277.896 536.494H292.203Z" fill="#BFD2D8"/>
</g>
<path d="M277.896 156.823V536.494L285.049 540.612V160.941L277.896 156.823Z" fill="#4A5365"/>
<path d="M285.049 160.941L292.202 156.823V536.494L285.049 540.612V160.941Z" fill="#333A4C"/>
<path d="M277.896 156.823L285.049 152.706L292.203 156.823L285.049 160.941L277.896 156.823Z" fill="#616D7E"/>
<defs>
<linearGradient id="paint0_linear_240_6" x1="181.975" y1="141.198" x2="115.783" y2="255.968" gradientUnits="userSpaceOnUse">
<stop stop-color="#EAF3F4"/>
<stop offset="0.43" stop-color="#E7F1F2"/>
<stop offset="0.73" stop-color="#DEEBED"/>
<stop offset="0.99" stop-color="#CEE2E5"/>
<stop offset="1" stop-color="#CEE2E5"/>
</linearGradient>
</defs>
</svg>
