<svg width="324" height="361" viewBox="0 0 324 361" fill="none" xmlns="http://www.w3.org/2000/svg">
<g style="mix-blend-mode:multiply">
<path d="M320.077 234.148L223.874 178.683C218.835 175.761 210.624 175.761 205.55 178.683L9.16221 291.936C4.12301 294.857 4.12301 299.573 9.16221 302.494L105.365 357.96C110.404 360.881 118.615 360.881 123.689 357.96L320.077 244.706C325.116 241.785 325.116 237.069 320.077 234.148ZM119.284 350.323C118.439 350.815 116.747 351.343 114.527 351.343C112.307 351.343 110.616 350.815 109.77 350.323L17.6548 297.215L80.3804 261.036L177.323 316.853L119.284 350.323ZM306.122 242.594L209.179 186.777L209.99 186.32C210.836 185.827 212.527 185.299 214.747 185.299C216.967 185.299 218.659 185.827 219.504 186.32L311.619 239.427L306.122 242.594Z" fill="#386D7D" fill-opacity="0.3"/>
</g>
<path d="M71.5703 342.545L93.2071 330.051L100.22 334.204L78.7591 346.768L71.5703 342.545Z" fill="#616D7E"/>
<path d="M71.5703 346.698V342.545L78.7591 346.768V350.921L71.5703 346.698Z" fill="#4A5365"/>
<path d="M100.219 334.204V338.357L78.7588 350.921V346.768L100.219 334.204Z" fill="#333A4C"/>
<path d="M14.3428 309.674L35.9443 297.18L42.9569 301.333L21.4963 313.897L14.3428 309.674Z" fill="#616D7E"/>
<path d="M14.3428 313.827V309.674L21.4963 313.897V318.05L14.3428 313.827Z" fill="#4A5365"/>
<path d="M42.9567 301.333V305.486L21.4961 318.05V313.897L42.9567 301.333Z" fill="#333A4C"/>
<path d="M118.967 63.634C117.311 60.7129 114.985 58.179 112.448 56.7008L16.2449 1.23544C13.6725 -0.242704 11.3467 -0.348285 9.69046 0.672335L2.60742 4.89558L7.11802 7.46474L14.1658 11.512L111.884 67.7165L112.906 67.1182L119.002 63.5988L118.967 63.634Z" fill="#616D7E"/>
<path d="M19.7342 292.042C16.8446 290.388 14.3074 285.636 14.3074 282.293V11.512L7.04813 7.46472V282.293C5.18046 288.17 8.91582 295.702 16.2103 298.553L111.849 353.701V345.149L19.7342 292.042Z" fill="#333A4C"/>
<path d="M121.575 72.5029C121.575 69.617 120.588 66.4495 118.967 63.634L112.871 67.1534L111.849 67.7517V358.523L118.861 354.3H118.932V354.229C120.588 353.244 121.575 351.238 121.575 348.352V72.5029Z" fill="#333A4C"/>
<path d="M114.527 76.7261C114.527 70.884 110.439 63.81 105.365 60.8889L9.16219 5.42351C4.123 2.50243 0 4.86041 0 10.7026V286.516C0 292.358 4.08776 299.432 9.16219 302.354L105.365 357.819C110.404 360.74 114.527 358.382 114.527 352.54V76.7261ZM107.479 350.921L12.6861 296.265C9.79649 294.611 7.04782 289.86 7.04782 286.516V12.3567L101.841 67.0126C104.731 68.6668 107.479 73.4179 107.479 76.7613V350.956V350.921Z" fill="#4A5365"/>
<path d="M7.04785 29.109L14.3424 24.9209L107.479 78.6266V86.8972L7.04785 29.109Z" fill="#B3CEDE"/>
<path d="M7.04785 29.109V202.298L107.479 260.191V86.8972L7.04785 29.109Z" fill="url(#paint0_linear_240_29)"/>
<defs>
<linearGradient id="paint0_linear_240_29" x1="91.1636" y1="86.0174" x2="23.9867" y2="202.513" gradientUnits="userSpaceOnUse">
<stop stop-color="#EAF3F4"/>
<stop offset="0.43" stop-color="#E7F1F2"/>
<stop offset="0.73" stop-color="#DEEBED"/>
<stop offset="0.99" stop-color="#CEE2E5"/>
<stop offset="1" stop-color="#CEE2E5"/>
</linearGradient>
</defs>
</svg>
